<svg width="1440" height="785" viewBox="0 0 1440 785" fill="none" xmlns="http://www.w3.org/2000/svg">
<rect width="1440" height="785" fill="url(#paint0_linear)"/>
<path d="M582 82L584.245 88.1298H591.511L585.633 91.9182L587.878 98.0479L582 94.2595L576.122 98.0479L578.367 91.9182L572.489 88.1298H579.755L582 82Z" fill="#C4C4C4"/>
<path d="M181 122.911L183.245 129.041H190.511L184.633 132.829L186.878 138.959L181 135.171L175.122 138.959L177.367 132.829L171.489 129.041H178.755L181 122.911Z" fill="#C4C4C4"/>
<path d="M120 613.846L122.245 619.976H129.511L123.633 623.765L125.878 629.894L120 626.106L114.122 629.894L116.367 623.765L110.489 619.976H117.755L120 613.846Z" fill="#C4C4C4"/>
<path d="M403 713.933L405.245 720.063H412.511L406.633 723.852L408.878 729.981L403 726.193L397.122 729.981L399.367 723.852L393.489 720.063H400.755L403 713.933Z" fill="#C4C4C4"/>
<path d="M1072 623L1074.25 629.13H1081.51L1075.63 632.918L1077.88 639.048L1072 635.26L1066.12 639.048L1068.37 632.918L1062.49 629.13H1069.75L1072 623Z" fill="#C4C4C4"/>
<path d="M1312 82L1314.25 88.129L1321.51 88.129L1315.63 91.917L1317.88 98.046L1312 94.258L1306.12 98.046L1308.37 91.917L1302.49 88.129L1309.75 88.129L1312 82Z" fill="#C4C4C4"/>
<path d="M1271 456.046L1273.25 462.176H1280.51L1274.63 465.964L1276.88 472.094L1271 468.306L1265.12 472.094L1267.37 465.964L1261.49 462.176H1268.75L1271 456.046Z" fill="#C4C4C4"/>
<path d="M222 335.504L224.245 341.634H231.511L225.633 345.422L227.878 351.552L222 347.763L216.122 351.552L218.367 345.422L212.489 341.634H219.755L222 335.504Z" fill="#C4C4C4"/>
<path d="M1385 733L1387.25 739.13H1394.51L1388.63 742.918L1390.88 749.048L1385 745.26L1379.12 749.048L1381.37 742.918L1375.49 739.13H1382.75L1385 733Z" fill="#C4C4C4"/>
<defs>
<linearGradient id="paint0_linear" x1="0" y1="392.5" x2="1440" y2="392.5" gradientUnits="userSpaceOnUse">
<stop stop-color="#FBFBFB" stop-opacity="0"/>
</linearGradient>
</defs>
</svg>
