<svg id="Layer_1" data-name="Layer 1" xmlns="http://www.w3.org/2000/svg" xmlns:xlink="http://www.w3.org/1999/xlink" viewBox="0 0 549.99 409.5"><defs><style>.cls-1,.cls-13,.cls-4,.cls-6{fill:#4c61d5;}.cls-1,.cls-5,.cls-8{opacity:0.1;}.cls-1,.cls-10,.cls-11,.cls-5,.cls-8,.cls-9{isolation:isolate;}.cls-2{opacity:0.2;}.cls-3{fill:#3f3d56;}.cls-6,.cls-7,.cls-8{stroke:#fff;stroke-miterlimit:10;}.cls-6{opacity:0.08;}.cls-7{opacity:0;}.cls-8{fill:#5263ad;}.cls-9{fill:#fa5959;}.cls-10,.cls-11,.cls-9{opacity:0.8;}.cls-10{fill:#fed253;}.cls-11{fill:#8ccf4d;}.cls-12{fill:url(#linear-gradient);}.cls-13{opacity:0.35;}.cls-14{fill:url(#linear-gradient-2);}.cls-15{fill:#a1616a;}</style><linearGradient id="linear-gradient" x1="75.39" y1="464.11" x2="75.39" y2="465.11" gradientTransform="matrix(0, 2.23, 3.34, 0, -1818.44, -111.99)" gradientUnits="userSpaceOnUse"><stop offset="0" stop-color="gray" stop-opacity="0.25"/><stop offset="0.54" stop-color="gray" stop-opacity="0.12"/><stop offset="1" stop-color="gray" stop-opacity="0.1"/></linearGradient><linearGradient id="linear-gradient-2" x1="-21.15" y1="623.04" x2="-21.15" y2="624.04" gradientTransform="matrix(63.44, 0, 0, -116.99, 1611.76, 73225.88)" xlink:href="#linear-gradient"/></defs><title>3</title><ellipse id="Ellipse_48" data-name="Ellipse 48" class="cls-1" cx="262.22" cy="392.22" rx="251.26" ry="17.28"/><g id="Group_11" data-name="Group 11" class="cls-2"><path id="Path_115" data-name="Path 115" class="cls-3" d="M460.81,393a10.21,10.21,0,0,1-1,1.49q-4.82-3.4-9.79-6.65a4.25,4.25,0,0,1,.21-.43,9.36,9.36,0,0,1,3.35-3.63,5.58,5.58,0,0,1,5.57-.48,5.67,5.67,0,0,1,2.75,4.89A9.36,9.36,0,0,1,460.81,393Z" transform="translate(0 0)"/><ellipse id="Ellipse_49" data-name="Ellipse 49" class="cls-3" cx="460.03" cy="381.81" rx="7.81" ry="5.96" transform="translate(-92.71 609.61) rotate(-62.09)"/><ellipse id="Ellipse_50" data-name="Ellipse 50" class="cls-3" cx="464.49" cy="373.38" rx="7.81" ry="5.96" transform="translate(-82.88 609.07) rotate(-62.09)"/><ellipse id="Ellipse_51" data-name="Ellipse 51" class="cls-3" cx="468.96" cy="364.94" rx="7.81" ry="5.96" transform="translate(-73.05 608.53) rotate(-62.09)"/><ellipse id="Ellipse_52" data-name="Ellipse 52" class="cls-3" cx="473.43" cy="356.5" rx="7.81" ry="5.96" transform="translate(-63.21 607.99) rotate(-62.09)"/><path id="Path_116" data-name="Path 116" class="cls-4" d="M484.25,288.27a28.38,28.38,0,0,1-.44-3.9l15.05,5.06-15.05-7.8A28.71,28.71,0,0,1,494,261.31l14.56,21.11L497.21,259a28.58,28.58,0,0,1,30.28,48.48,27.69,27.69,0,0,1-3.53,1.87,28,28,0,0,1,.44,6.13l-22.93-.17L524.05,319a28.6,28.6,0,0,1-16.63,21.56,28.58,28.58,0,1,1-39.7-21,28.59,28.59,0,0,1,16.54-31.21Z" transform="translate(0 0)"/><path id="Path_117" data-name="Path 117" class="cls-5" d="M521.08,327.78a28.41,28.41,0,0,1-13.67,12.75,28.58,28.58,0,1,1-39.7-21C466.6,313.41,522.59,325,521.08,327.78Z" transform="translate(0 0)"/></g><g id="Group_12" data-name="Group 12" class="cls-2"><path id="Path_118" data-name="Path 118" class="cls-3" d="M442.9,236.23a16.69,16.69,0,0,1-1.25,2.59q-8.41-4.5-17.06-8.73c.08-.24.17-.49.26-.73a15.15,15.15,0,0,1,4.63-6.5c2.71-2.17,6-3,8.92-1.88s4.8,3.9,5.39,7.3a15.2,15.2,0,0,1-.89,7.95Z" transform="translate(0 0)"/><ellipse id="Ellipse_53" data-name="Ellipse 53" class="cls-3" cx="439.39" cy="218.36" rx="12.65" ry="9.66" transform="translate(78.97 551.3) rotate(-69.16)"/><ellipse id="Ellipse_54" data-name="Ellipse 54" class="cls-3" cx="444.9" cy="203.92" rx="12.65" ry="9.66" transform="translate(96.01 547.14) rotate(-69.16)"/><ellipse id="Ellipse_55" data-name="Ellipse 55" class="cls-3" cx="450.39" cy="189.47" rx="12.65" ry="9.66" transform="translate(113.05 542.97) rotate(-69.16)"/><ellipse id="Ellipse_56" data-name="Ellipse 56" class="cls-3" cx="455.89" cy="175.04" rx="12.65" ry="9.66" transform="translate(130.09 538.81) rotate(-69.16)"/><path id="Path_119" data-name="Path 119" class="cls-4" d="M459.69,63.32a47.8,47.8,0,0,1-1.48-6.23l25.21,5.13-25.73-9.58A46.32,46.32,0,0,1,469.9,18.09L497.52,49,474.67,13.59a46.26,46.26,0,1,1,58.13,72,47.19,47.19,0,0,1-5.13,3.6,46.26,46.26,0,0,1,1.93,9.75l-36.88,4.29,37,1.47a46.29,46.29,0,0,1-22.43,37.95,46.26,46.26,0,1,1-68-25.87,46.27,46.27,0,0,1,20.35-53.47Z" transform="translate(0 0)"/><path id="Path_120" data-name="Path 120" class="cls-5" d="M526.74,119.44a46.05,46.05,0,0,1-19.43,23.19,46.26,46.26,0,1,1-68-25.87C436.34,107.22,528.59,114.59,526.74,119.44Z" transform="translate(0 0)"/></g><g id="Group_13" data-name="Group 13" class="cls-2"><path id="Path_121" data-name="Path 121" class="cls-3" d="M99.36,284.28a21.26,21.26,0,0,0,1.12,3.23q10.59-4,21.42-7.8c-.06-.3-.13-.6-.2-.9a18,18,0,0,0-4.5-8.36c-2.89-3-6.63-4.42-10.22-3.54s-6.24,3.9-7.44,7.8a18.08,18.08,0,0,0-.18,9.57Z" transform="translate(0 0)"/><ellipse id="Ellipse_57" data-name="Ellipse 57" class="cls-3" cx="106.19" cy="263.68" rx="11.49" ry="15.04" transform="translate(-59.51 32.71) rotate(-13.72)"/><ellipse id="Ellipse_58" data-name="Ellipse 58" class="cls-3" cx="101.83" cy="245.84" rx="11.49" ry="15.04" transform="translate(-55.41 31.17) rotate(-13.72)"/><ellipse id="Ellipse_59" data-name="Ellipse 59" class="cls-3" cx="97.48" cy="227.98" rx="11.49" ry="15.04" transform="translate(-51.3 29.62) rotate(-13.72)"/><ellipse id="Ellipse_60" data-name="Ellipse 60" class="cls-3" cx="93.12" cy="210.13" rx="11.49" ry="15.04" transform="translate(-47.18 28.08) rotate(-13.72)"/><path id="Path_122" data-name="Path 122" class="cls-4" d="M105.05,77.77a54.64,54.64,0,0,0,2.66-7.14L77.22,73,109,65.46a55.09,55.09,0,0,0-9.31-42.6L62.51,55.32l32.2-38.41A55,55,0,0,0,15.34,93.13,54.42,54.42,0,0,0,21,98.28a55.71,55.71,0,0,0-3.72,11.24L60.2,120l-43.91-3.71a55.1,55.1,0,0,0,20.86,48.08,55,55,0,1,0,84-20.51A55,55,0,0,0,105,77.77Z" transform="translate(0 0)"/><path id="Path_123" data-name="Path 123" class="cls-5" d="M17.65,134.11a54.75,54.75,0,0,0,19.5,30.26,55,55,0,1,0,84-20.51C126.13,133,16.19,128.14,17.65,134.11Z" transform="translate(0 0)"/></g><path id="Path_124" data-name="Path 124" class="cls-6" d="M489,51.51H47.87a3.64,3.64,0,0,0-2.79,1.42,5.38,5.38,0,0,0-1.14,3.41V386.77c0,5.37,3.54,9.72,7.92,9.73H485c4.38,0,7.93-4.36,7.92-9.73V56.34C493,53.68,491.2,51.52,489,51.51Z" transform="translate(0 0)"/><path id="Path_125" data-name="Path 125" class="cls-7" d="M490.77,63.59v321c0,5.45-3.51,9.87-7.84,9.87H54.06c-4.33,0-7.85-4.42-7.85-9.87v-321Z" transform="translate(0 0)"/><path id="Path_126" data-name="Path 126" class="cls-8" d="M490.73,68.36v13.9H46.16V68.36c0-2.64,1.75-4.77,3.9-4.77H486.83c2.15,0,3.89,2.13,3.89,4.77Z" transform="translate(0 0)"/><circle id="Ellipse_61" data-name="Ellipse 61" class="cls-9" cx="54.84" cy="74.36" r="2.23"/><circle id="Ellipse_62" data-name="Ellipse 62" class="cls-10" cx="60.98" cy="74.36" r="2.23"/><circle id="Ellipse_63" data-name="Ellipse 63" class="cls-11" cx="67.11" cy="74.36" r="2.23"/><rect id="Rectangle_8" data-name="Rectangle 8" class="cls-12" x="293.21" y="54.97" width="3.34" height="2.23"/><rect id="Rectangle_9" data-name="Rectangle 9" class="cls-13" x="142.73" y="108.09" width="52.39" height="5.57"/><rect id="Rectangle_10" data-name="Rectangle 10" class="cls-13" x="123.15" y="123.79" width="294.27" height="5.57"/><rect id="Rectangle_11" data-name="Rectangle 11" class="cls-13" x="123.15" y="139.5" width="294.27" height="5.57"/><rect id="Rectangle_12" data-name="Rectangle 12" class="cls-13" x="123.15" y="155.2" width="294.27" height="5.57"/><rect id="Rectangle_13" data-name="Rectangle 13" class="cls-13" x="123.15" y="170.91" width="294.27" height="5.57"/><rect id="Rectangle_14" data-name="Rectangle 14" class="cls-1" x="178.93" y="198.04" width="181.69" height="140.45"/><path id="Path_127" data-name="Path 127" class="cls-14" d="M301.32,241.35c-.24,0-.47,0-.71,0a3.29,3.29,0,0,0,.08-1,9.47,9.47,0,0,0-1.12-4,17.16,17.16,0,0,0-1.38-2.09c-1.52-2.1-2.92-4.24-4.59-6.22a9.77,9.77,0,0,1-1.76-2.6,11.63,11.63,0,0,0-.61-1.51,3.25,3.25,0,0,0-3-1.48,4.8,4.8,0,0,0-3.08,1.63c-.47.5-.85,1.28-.46,1.85s1.23.64,1.28,1.26c0,.34,0,.88-.34,1a6.27,6.27,0,0,0-1.7.74,2,2,0,0,0-.9,1.56c1,.15,1.77-.66,2.65-1.11a4.91,4.91,0,0,1,3.5-.13,3.33,3.33,0,0,1,1.2.61,4,4,0,0,1,.78,1.05,11.09,11.09,0,0,1,1.93,5.22l.49,3.14a17.51,17.51,0,0,0-2.16.29,13.67,13.67,0,0,1-5.76-.39c-1.95-.56-3.9-1.57-5.91-1.12-.94.21-1.8.73-2.75.88a7.57,7.57,0,0,1-2.23-.11l-1.54-.25a2.64,2.64,0,0,1-.12-.4,11.34,11.34,0,0,1-.44-3.43,6.14,6.14,0,0,0,5.24-8.69,5.27,5.27,0,0,0,2-2l-.39-.07.37-.56a.65.65,0,0,1-.22-.9.53.53,0,0,1,.11-.14,2.13,2.13,0,0,0-1.05-.24c.11-.21-.08-.48-.3-.55a2.57,2.57,0,0,0-.73,0,3.83,3.83,0,0,1-1-.24c-2.38-.82-5-1.54-7.38-.85a9.17,9.17,0,0,0-3,1.55,3.85,3.85,0,0,0-1.57,5,13.47,13.47,0,0,1,.79,2.84,9,9,0,0,1-.31,2.69,10,10,0,0,0,1.62.36,9.23,9.23,0,0,1-1.61,3.3,14.63,14.63,0,0,1-1.11,1.24H264a28.91,28.91,0,0,1-3.35.41c-1.18,0-2.34-.45-3.51-.36a9,9,0,0,0-2.05.46,31.3,31.3,0,0,1-9.42,1.26l-.39,0,.36-2.28a11.09,11.09,0,0,1,1.93-5.22,4,4,0,0,1,.78-1.05,3.29,3.29,0,0,1,1.21-.61,4.83,4.83,0,0,1,3.49.13c.88.43,1.67,1.24,2.66,1.11a2.06,2.06,0,0,0-.91-1.56,6.14,6.14,0,0,0-1.7-.74c-.33-.11-.37-.66-.34-1,.05-.62.93-.76,1.28-1.27s0-1.34-.46-1.85a4.84,4.84,0,0,0-3.07-1.62,3.27,3.27,0,0,0-3,1.48,11.57,11.57,0,0,0-.6,1.51,10.22,10.22,0,0,1-1.77,2.6c-1.67,2-3.07,4.12-4.59,6.22a18.41,18.41,0,0,0-1.38,2.09,9.56,9.56,0,0,0-1.11,4,3.07,3.07,0,0,0,.07,1,1,1,0,0,0-.06.25,1.15,1.15,0,0,0,.44.78,7.59,7.59,0,0,0,2.9,2.11,15.72,15.72,0,0,0,2.16.37c1.76.32,3.39,1.34,5.18,1.34,1.23,0,2.44-.49,3.66-.32,1.67.23,2.87,1.59,3.9,2.91a10.08,10.08,0,0,1,1.92,3.52c.4,1.55.15,3.3,1,4.67a3.16,3.16,0,0,1,.48.93,3.07,3.07,0,0,1-.34,1.51c-.7,2.16.84,4.46.68,6.69-.08,1.09-.56,2.11-.61,3.2-.09,1.4.48,3-.3,4.13.48-.25,1-.46,1.45-.66-2.34,6.86-4.46,13.94-4.3,21.15.12,4.67,1.11,9.82-1.57,13.66a5.41,5.41,0,0,0-.9,1.54,5.16,5.16,0,0,0,.14,2.31c.5,3.35-1.31,6.64-1.43,10a19.16,19.16,0,0,0,.2,3.12l.66,5.65a4.2,4.2,0,0,0-1.8.9,2.17,2.17,0,0,0-1,2.3,2.3,2.3,0,0,0,1.73,1.17,4.33,4.33,0,0,1,2,.76c.19.21.4.41.61.6a2.18,2.18,0,0,0,1.35.25,24.65,24.65,0,0,0,2.54-.22,1,1,0,0,0,.51-.16,1.12,1.12,0,0,0,.28-.84,11.38,11.38,0,0,0-.1-2.54c0-.16-.08-.31-.13-.48a9.46,9.46,0,0,0,.62-2.23c.17-1.11.2-2.28.27-3.42.17-2.91.56-5.79,1-8.68l.55-3.71c.18-1.22.36-2.44.56-3.66a115.27,115.27,0,0,1,4.81-19.46c.47-1.35,1.28-2.94,2.71-3l.85,1.67a58.34,58.34,0,0,1,2.65,6.63c1.11,2.89.73,6.27,2.22,9a11.07,11.07,0,0,1,.75,1.35,8,8,0,0,1,.45,2.27l1,10c.45,4.51.92,9.14,2.95,13.19a4.74,4.74,0,0,0,.44.75,12.5,12.5,0,0,0,0,2,.81.81,0,0,0,.79,1c.84.11,1.67.18,2.53.21a2.18,2.18,0,0,0,1.35-.25,5.76,5.76,0,0,0,.61-.6,4.33,4.33,0,0,1,2-.76,2.33,2.33,0,0,0,1.74-1.17,2.22,2.22,0,0,0-1-2.31,4,4,0,0,0-2-.92,3.09,3.09,0,0,1-.91-.07,4.61,4.61,0,0,0,.07-1.11,5.93,5.93,0,0,1-.06-1.33,8.35,8.35,0,0,1,.46-1.3c.64-2-.72-4-1.2-6-.64-2.69.31-5.5.14-8.26-.27-4.33-3.29-8.39-2.49-12.66.64-3.41.1-6.91-.51-10.33l-2.23-12.71a14.33,14.33,0,0,0-.81-3,7.56,7.56,0,0,0,1.22-.32,8.75,8.75,0,0,0,.29-4.32c-.17-1.46-.56-2.89-.75-4.34a27.54,27.54,0,0,1-.29-3.51,14.42,14.42,0,0,1,.24-3.47,17,17,0,0,1,1.05-2.92,52.1,52.1,0,0,1,3.9-7.8l6.79-.56a9,9,0,0,0,1.63-.21,19,19,0,0,1,2.08-.6,2.57,2.57,0,0,0,.77-.15c.5-.23.81-.87,1.36-.89a2.15,2.15,0,0,0,.62,0c.25-.08.37-.35.56-.56.34-.38.91-.46,1.36-.71a2,2,0,0,0,.75-2.42Z" transform="translate(0 0)"/><circle id="Ellipse_64" data-name="Ellipse 64" class="cls-15" cx="271.83" cy="231.32" r="6.13"/><path id="Path_128" data-name="Path 128" class="cls-15" d="M265.25,238.77a14.88,14.88,0,0,1-2.09,2.11,16.58,16.58,0,0,0,12,2c-.15-.42-.69-.48-1.08-.69a2.28,2.28,0,0,1-.94-1.49,11.51,11.51,0,0,1-.36-4.52,3,3,0,0,0,0-1.12,2.42,2.42,0,0,0-1.15-1.27,11.46,11.46,0,0,0-2.79-1.25c-1-.3-1.6-.44-1.63.74A9.44,9.44,0,0,1,265.25,238.77Z" transform="translate(0 0)"/><path id="Path_129" data-name="Path 129" class="cls-15" d="M290.1,242.68l-.62-4a11,11,0,0,0-1.93-5.2,4,4,0,0,0-.78-1.05,3.16,3.16,0,0,0-1.2-.6,4.89,4.89,0,0,0-3.49.13c-.87.42-1.67,1.23-2.65,1.09a2,2,0,0,1,.91-1.56,6,6,0,0,1,1.67-.74c.32-.1.37-.65.34-1-.05-.62-.94-.76-1.29-1.26s0-1.34.46-1.84a4.78,4.78,0,0,1,3.07-1.61,3.21,3.21,0,0,1,3,1.46,11.63,11.63,0,0,1,.61,1.51,10.13,10.13,0,0,0,1.76,2.59c1.67,2,3.07,4.09,4.58,6.18a17.85,17.85,0,0,1,1.38,2.08,9.38,9.38,0,0,1,1.12,4,2.4,2.4,0,0,1-.19,1.27,2,2,0,0,1-1.67,1,6,6,0,0,1-2-.4l-2.43-.82a1.72,1.72,0,0,1-.78-.43.62.62,0,0,1,.1-.82Z" transform="translate(0 0)"/><path id="Path_130" data-name="Path 130" class="cls-15" d="M248.66,243.53l.62-4a14.68,14.68,0,0,1,.5-2.35,14.34,14.34,0,0,1,1.43-2.85,4,4,0,0,1,.77-1,3.18,3.18,0,0,1,1.2-.61,4.91,4.91,0,0,1,3.5.13c.87.42,1.67,1.23,2.65,1.09a2,2,0,0,0-.91-1.56,6,6,0,0,0-1.67-.74c-.32-.1-.37-.65-.34-1,0-.61.93-.75,1.29-1.26s0-1.33-.46-1.83a4.78,4.78,0,0,0-3.07-1.61,3.23,3.23,0,0,0-3,1.46,13.18,13.18,0,0,0-.6,1.51,10.13,10.13,0,0,1-1.76,2.59c-1.67,2-3.07,4.09-4.59,6.18a19.14,19.14,0,0,0-1.37,2.08,9.52,9.52,0,0,0-1.12,4,2.67,2.67,0,0,0,.19,1.28,2,2,0,0,0,1.7.95,5.94,5.94,0,0,0,2-.4l2.43-.8a1.47,1.47,0,0,0,.78-.43A.61.61,0,0,0,248.66,243.53Z" transform="translate(0 0)"/><path id="Path_131" data-name="Path 131" class="cls-3" d="M286.66,328.9a2.2,2.2,0,0,1,1,2.3,2.35,2.35,0,0,1-1.74,1.16,4.33,4.33,0,0,0-2,.76,6.5,6.5,0,0,1-.6.57,2.19,2.19,0,0,1-1.35.25,24.65,24.65,0,0,1-2.54-.22.9.9,0,0,1-.5-.16,1,1,0,0,1-.28-.83,10.22,10.22,0,0,1,.1-2.53,3.64,3.64,0,0,1,1.22-2.16c.64-.5,2.61-2,3.34-1,.2.25.12.61.39.82s.7.09,1,.13a4,4,0,0,1,2,.94Z" transform="translate(0 0)"/><path id="Path_132" data-name="Path 132" class="cls-3" d="M253.8,329.19a2.18,2.18,0,0,0-1,2.3,2.27,2.27,0,0,0,1.73,1.16,4.3,4.3,0,0,1,2,.76,7,7,0,0,0,.62.6,2.23,2.23,0,0,0,1.34.25c.85,0,1.67-.11,2.54-.22a1,1,0,0,0,.5-.17,1.09,1.09,0,0,0,.29-.83,11.18,11.18,0,0,0-.11-2.52,3.61,3.61,0,0,0-1.22-2.16c-.64-.5-2.6-2-3.34-1-.2.26-.12.61-.4.82s-.7.09-1,.13a4,4,0,0,0-2,.92Z" transform="translate(0 0)"/><path id="Path_133" data-name="Path 133" class="cls-3" d="M261,272.29c-2.52,7.24-5,14.74-4.77,22.42.12,4.66,1.12,9.79-1.56,13.6a3.53,3.53,0,0,0-.77,3.84c.5,3.34-1.3,6.61-1.42,10a19,19,0,0,0,.2,3.11l.69,5.95c.24,2,2.87,2.87,4.9,3.16a7.62,7.62,0,0,0,1.72-4c.17-1.11.2-2.27.27-3.4.17-2.9.59-5.77,1-8.64l.56-3.7c.17-1.21.35-2.43.55-3.64a114.45,114.45,0,0,1,4.81-19.3c.48-1.36,1.29-2.94,2.71-3l.86,1.63a59.51,59.51,0,0,1,2.63,6.59c1.12,2.88.73,6.24,2.23,8.95a11,11,0,0,1,.74,1.35,7.62,7.62,0,0,1,.45,2.23l1,10c.45,4.49.92,9.1,2.94,13.13a3,3,0,0,0,.93,1.22,2.52,2.52,0,0,0,2.79-.3,4.78,4.78,0,0,0,1.93-4.12,5.82,5.82,0,0,1-.06-1.32,8.74,8.74,0,0,1,.46-1.3c.65-2-.72-4-1.2-6-.65-2.68.31-5.47.14-8.22-.27-4.32-3.28-8.36-2.48-12.6.64-3.4.09-6.89-.51-10.29L280.49,277c-.36-2-.89-4.24-2.67-5.22a6.61,6.61,0,0,0-3.25-.56C270,271.22,265.56,271.86,261,272.29Z" transform="translate(0 0)"/><path id="Path_134" data-name="Path 134" class="cls-4" d="M301.31,243.12a8,8,0,0,1-4.68-1,9.44,9.44,0,0,0-1.72-.91,7.94,7.94,0,0,0-3.52.13,13.57,13.57,0,0,1-5.74-.39c-1.95-.56-3.9-1.56-5.91-1.11-.94.2-1.79.72-2.75.87a7.28,7.28,0,0,1-2.23-.11l-6.35-1a17.7,17.7,0,0,0-4.36-.31,26.74,26.74,0,0,1-3.34.42c-1.18,0-2.34-.45-3.51-.37a10.05,10.05,0,0,0-2,.46,31.24,31.24,0,0,1-9.41,1.26,14.07,14.07,0,0,0-7.07,2.45,1.13,1.13,0,0,0-.56.77,1.15,1.15,0,0,0,.44.77,7.59,7.59,0,0,0,2.9,2.11,17.4,17.4,0,0,0,2.16.37c1.76.32,3.38,1.33,5.16,1.33,1.23,0,2.44-.49,3.66-.32,1.67.23,2.87,1.58,3.9,2.9a9.9,9.9,0,0,1,1.92,3.5c.39,1.55.15,3.28,1,4.65a3.51,3.51,0,0,1,.48.92,3.18,3.18,0,0,1-.34,1.51c-.71,2.15.83,4.41.67,6.69-.08,1.07-.56,2.1-.61,3.17-.08,1.4.49,3-.29,4.12a20,20,0,0,1,9.72-2.13,13.3,13.3,0,0,1,1.67.16,22.88,22.88,0,0,1,3.17.88c2.33.74,4.89,1.27,7.19.42a8.52,8.52,0,0,0,.29-4.29c-.17-1.45-.53-2.88-.75-4.32a29.32,29.32,0,0,1-.29-3.5,14.22,14.22,0,0,1,.25-3.45,15.66,15.66,0,0,1,1-2.9,51.16,51.16,0,0,1,3.9-7.8l6.79-.56a10,10,0,0,0,1.62-.22,21.23,21.23,0,0,1,2.07-.59,2.92,2.92,0,0,0,.77-.15c.5-.23.81-.87,1.36-.89a2.15,2.15,0,0,0,.62,0c.25-.07.37-.34.56-.55.35-.39.91-.47,1.36-.71a2,2,0,0,0,.82-2.31Z" transform="translate(0 0)"/><path id="Path_135" data-name="Path 135" class="cls-3" d="M272.93,233.59a1.1,1.1,0,0,0,1.26.08,1.53,1.53,0,0,0,.47-.86,21.52,21.52,0,0,0,.49-2.11,2.11,2.11,0,0,1,.28-.89c.4-.63,1.28-.66,2-.94a5.09,5.09,0,0,0,2-2l-.38-.08.36-.55a.65.65,0,0,1-.22-.89.53.53,0,0,1,.12-.14,2,2,0,0,0-1.06-.24c.12-.21-.07-.48-.3-.56a2.49,2.49,0,0,0-.72,0,3.66,3.66,0,0,1-1-.24c-2.37-.82-4.95-1.54-7.36-.85a9.14,9.14,0,0,0-2.95,1.54,3.83,3.83,0,0,0-1.57,5,12.47,12.47,0,0,1,.78,2.81,8.72,8.72,0,0,1-.3,2.69,8.78,8.78,0,0,0,2,.39,2.92,2.92,0,0,0,2-.55,10.92,10.92,0,0,0,1.32-1.83,1.92,1.92,0,0,1,1.61-.84C272.32,232.61,272.43,233.24,272.93,233.59Z" transform="translate(0 0)"/><path id="Path_136" data-name="Path 136" class="cls-3" d="M268.85,333.69h-6.53a.85.85,0,0,0-.67,1,.84.84,0,0,0,.67.67h1.3v11.08H241.29a.6.6,0,0,0-.5-.3h-6.52a.85.85,0,0,0,0,1.67h1.31v11.37H214a.69.69,0,0,0-.61-.6h-6.51a.84.84,0,0,0-.7,1,.85.85,0,0,0,.7.7h.65V372H185.62a.52.52,0,0,0-.27-.07h-6.52a.85.85,0,0,0,0,1.67h.65V384.7H157.84a.64.64,0,0,0-.56-.38h-6.52a.87.87,0,0,0-.67,1,.86.86,0,0,0,.67.67h.65v12.34H298.85V333.69Z" transform="translate(0 0)"/><path id="Path_137" data-name="Path 137" class="cls-1" d="M96.38,128.24a16,16,0,0,0-2.18-2.33,1.87,1.87,0,0,1-.19-2.64,2.5,2.5,0,0,1,.39-.34c.27-.17.53-.36.8-.56,3-2.31,4.58-5.41,3.42-6.93s-4.56-.88-7.6,1.43c-.35.26-.69.55-1,.84a1.86,1.86,0,0,1-2.63-.13,2,2,0,0,1-.29-.42,16,16,0,0,0-1.5-2.39c-2.71-3.56-6.34-5.37-8.12-4s-1,5.34,1.67,8.92a15.5,15.5,0,0,0,1.76,2,1.9,1.9,0,0,1,0,2.67,2.42,2.42,0,0,1-.45.34h0c-3.35,1.91-5.24,4.79-4.29,6.44s4.42,1.45,7.73-.45a13.62,13.62,0,0,0,1.48-1,1.88,1.88,0,0,1,2.64.36,1.85,1.85,0,0,1,.21.33,14.62,14.62,0,0,0,1.67,2.79c2.7,3.57,6.34,5.37,8.12,4S99.08,131.82,96.38,128.24Z" transform="translate(0 0)"/><path id="Path_138" data-name="Path 138" class="cls-1" d="M414,221.82a14.83,14.83,0,0,0,1.6-2.75,1.87,1.87,0,0,1,2.46-.95,1.78,1.78,0,0,1,.45.28c.24.2.5.39.76.59,3.1,2.23,6.52,2.78,7.64,1.25s-.5-4.61-3.59-6.85a13.11,13.11,0,0,0-1.12-.72,1.88,1.88,0,0,1-.63-2.57,2,2,0,0,1,.32-.39,14.88,14.88,0,0,0,1.84-2.13c2.63-3.63,3.29-7.63,1.48-8.92s-5.41.56-8,4.21a14.87,14.87,0,0,0-1.35,2.23,1.89,1.89,0,0,1-2.54.81,1.62,1.62,0,0,1-.46-.33h0c-2.78-2.61-6.13-3.6-7.42-2.23s-.09,4.65,2.7,7.25a14.57,14.57,0,0,0,1.38,1.11,1.9,1.9,0,0,1,.42,2.64,1.73,1.73,0,0,1-.26.28,15.42,15.42,0,0,0-2.19,2.45c-2.63,3.63-3.28,7.63-1.47,8.92S411.39,225.46,414,221.82Z" transform="translate(0 0)"/><ellipse id="Ellipse_65" data-name="Ellipse 65" class="cls-4" cx="416.06" cy="400.67" rx="18.84" ry="3.62"/><ellipse id="Ellipse_66" data-name="Ellipse 66" class="cls-3" cx="417.22" cy="399.13" rx="2.2" ry="2.87"/><ellipse id="Ellipse_67" data-name="Ellipse 67" class="cls-3" cx="417.22" cy="395.62" rx="2.2" ry="2.87"/><ellipse id="Ellipse_68" data-name="Ellipse 68" class="cls-3" cx="417.22" cy="392.12" rx="2.2" ry="2.87"/><ellipse id="Ellipse_69" data-name="Ellipse 69" class="cls-3" cx="417.22" cy="388.6" rx="2.2" ry="2.87"/><ellipse id="Ellipse_70" data-name="Ellipse 70" class="cls-3" cx="417.22" cy="385.09" rx="2.2" ry="2.87"/><ellipse id="Ellipse_71" data-name="Ellipse 71" class="cls-3" cx="417.22" cy="381.59" rx="2.2" ry="2.87"/><ellipse id="Ellipse_72" data-name="Ellipse 72" class="cls-3" cx="417.22" cy="378.08" rx="2.2" ry="2.87"/><path id="Path_139" data-name="Path 139" class="cls-4" d="M424.75,354.06a11,11,0,0,0,.82-1.2l-5.76-.95,6.23,0a10.49,10.49,0,0,0,.2-8.33L417.88,348l7.72-5.67a10.51,10.51,0,0,0-18.15,10.6,11.29,11.29,0,0,0,.79,1.16A11.22,11.22,0,0,0,407,356l7.49,3.9-8-2.68a10.52,10.52,0,0,0,1.67,9.87,10.5,10.5,0,1,0,16.52,0,10.53,10.53,0,0,0,0-13Z" transform="translate(0 0)"/><path id="Path_140" data-name="Path 140" class="cls-5" d="M406,360.55a10.53,10.53,0,0,0,2.23,6.5,10.51,10.51,0,1,0,16.52,0C426.16,365.26,406,359.38,406,360.55Z" transform="translate(0 0)"/><ellipse id="Ellipse_73" data-name="Ellipse 73" class="cls-4" cx="128.12" cy="401.53" rx="8.53" ry="1.64"/><ellipse id="Ellipse_74" data-name="Ellipse 74" class="cls-3" cx="127.36" cy="400.84" rx="0.99" ry="1.3"/><ellipse id="Ellipse_75" data-name="Ellipse 75" class="cls-3" cx="127.36" cy="399.25" rx="0.99" ry="1.3"/><ellipse id="Ellipse_76" data-name="Ellipse 76" class="cls-3" cx="127.36" cy="397.66" rx="0.99" ry="1.3"/><ellipse id="Ellipse_77" data-name="Ellipse 77" class="cls-3" cx="127.36" cy="396.07" rx="0.99" ry="1.3"/><ellipse id="Ellipse_78" data-name="Ellipse 78" class="cls-3" cx="127.36" cy="394.48" rx="0.99" ry="1.3"/><ellipse id="Ellipse_79" data-name="Ellipse 79" class="cls-3" cx="127.36" cy="392.9" rx="0.99" ry="1.3"/><ellipse id="Ellipse_80" data-name="Ellipse 80" class="cls-3" cx="127.36" cy="391.31" rx="0.99" ry="1.3"/><path id="Path_141" data-name="Path 141" class="cls-4" d="M131.4,380.43a4.07,4.07,0,0,0,.37-.55l-2.6-.43H132a4.88,4.88,0,0,0,.43-2,4.73,4.73,0,0,0-.34-1.78l-3.79,2,3.49-2.56a4.75,4.75,0,0,0-8.21,4.79,4.93,4.93,0,0,0,.36.53,4.45,4.45,0,0,0-.56.87l3.38,1.76-3.61-1.22a4.77,4.77,0,0,0,.77,4.46,4.76,4.76,0,1,0,7.47,0,4.75,4.75,0,0,0,0-5.88Z" transform="translate(0 0)"/><path id="Path_142" data-name="Path 142" class="cls-5" d="M122.91,383.37a4.72,4.72,0,0,0,1,2.95,4.76,4.76,0,1,0,7.47,0C132,385.52,122.91,382.84,122.91,383.37Z" transform="translate(0 0)"/></svg>