<svg id="Layer_1" data-name="Layer 1" xmlns="http://www.w3.org/2000/svg" xmlns:xlink="http://www.w3.org/1999/xlink" width="450px" height="420.27" viewBox="0 0 450 420.27">
<defs>
<style>
.cls-1,.cls-11,.cls-16{fill:#4c61d5;}
.cls-1{opacity:0.11;}.cls-2{fill:url(#linear-gradient);}.cls-3{fill:url(#linear-gradient-2);}.cls-4{fill:url(#linear-gradient-3);}.cls-5{fill:url(#linear-gradient-4);}.cls-6{fill:url(#linear-gradient-5);}.cls-7{fill:url(#linear-gradient-6);}.cls-8{opacity:0.5;}.cls-9{fill:url(#linear-gradient-7);}.cls-10{fill:#f2f2f2;}.cls-12{fill:url(#linear-gradient-8);}.cls-13{fill:url(#linear-gradient-9);}.cls-14{fill:url(#linear-gradient-10);}.cls-15{fill:url(#linear-gradient-11);}.cls-16{stroke:#000;stroke-width:0.5px;}.cls-16,.cls-30{stroke-miterlimit:10;}.cls-17{opacity:0.05;}.cls-17,.cls-24{isolation:isolate;}.cls-18,.cls-24,.cls-26{fill:#fff;}.cls-18{opacity:0.57;}.cls-19,.cls-24{opacity:0.2;}.cls-20{fill:url(#linear-gradient-12);}.cls-21{fill:url(#linear-gradient-13);}.cls-22{fill:#ca7070;}.cls-23{fill:#00695c;}.cls-25{fill:#263238;}.cls-27{fill:#ff5252;}.cls-28{fill:#f6b9ad;}.cls-29{fill:#fccc63;}.cls-30{fill:none;stroke:#b3b3b3;}.cls-31{fill:url(#linear-gradient-14);}.cls-32{fill:url(#linear-gradient-15);}
</style>
<linearGradient id="linear-gradient" x1="324.31" y1="18.22" x2="426.68" y2="18.22" gradientUnits="userSpaceOnUse">
<stop offset="0" stop-color="gray" stop-opacity="0.25"/>
<stop offset="0.54" stop-color="gray" stop-opacity="0.12"/>
<stop offset="1" stop-color="gray" stop-opacity="0.1"/>
</linearGradient>
<linearGradient id="linear-gradient-2" x1="347.24" y1="27.64" x2="449.6" y2="27.64" xlink:href="#linear-gradient"/><linearGradient id="linear-gradient-3" x1="308.34" y1="35.83" x2="410.71" y2="35.83" xlink:href="#linear-gradient"/><linearGradient id="linear-gradient-4" x1="149.06" y1="167.5" x2="251.43" y2="167.5" xlink:href="#linear-gradient"/><linearGradient id="linear-gradient-5" x1="133.09" y1="187.98" x2="235.46" y2="187.98" xlink:href="#linear-gradient"/><linearGradient id="linear-gradient-6" x1="171.99" y1="178.46" x2="274.36" y2="178.46" xlink:href="#linear-gradient"/><linearGradient id="linear-gradient-7" x1="-71.34" y1="627.5" x2="-71.34" y2="628.5" gradientTransform="matrix(450, 0, 0, -88.2, 32327.81, 55764.34)" xlink:href="#linear-gradient"/><linearGradient id="linear-gradient-8" x1="46.7" y1="78.89" x2="149.06" y2="78.89" xlink:href="#linear-gradient"/><linearGradient id="linear-gradient-9" x1="69.63" y1="89.85" x2="171.99" y2="89.85" xlink:href="#linear-gradient"/><linearGradient id="linear-gradient-10" x1="30.73" y1="99.37" x2="133.09" y2="99.37" xlink:href="#linear-gradient"/><linearGradient id="linear-gradient-11" x1="-70.63" y1="627.34" x2="-70.63" y2="628.34" gradientTransform="matrix(82.71, 0, 0, -82.71, 5943.47, 51971.06)" xlink:href="#linear-gradient"/><linearGradient id="linear-gradient-12" x1="69.28" y1="216.86" x2="69.28" y2="216.86" gradientTransform="matrix(0.51, 0, 0, -0.51, 195.32, 430)" xlink:href="#linear-gradient"/><linearGradient id="linear-gradient-13" x1="-60.75" y1="616.01" x2="-60.75" y2="617.01" gradientTransform="matrix(6.7, 0, 0, -15.2, 640.07, 9701.8)" xlink:href="#linear-gradient"/><linearGradient id="linear-gradient-14" x1="-68.26" y1="616.8" x2="-68.26" y2="617.8" gradientTransform="matrix(22.25, 0, 0, -19.75, 1897.62, 12489.82)" gradientUnits="userSpaceOnUse"><stop offset="0" stop-opacity="0.12"/><stop offset="0.55" stop-opacity="0.09"/><stop offset="1" stop-opacity="0.02"/></linearGradient><linearGradient id="linear-gradient-15" x1="-70.92" y1="628.22" x2="-70.92" y2="629.22" gradientTransform="matrix(123.37, 0, 0, -126.71, 9132.61, 79800.52)" xlink:href="#linear-gradient"/></defs><title>1</title><rect id="Rectangle_59" data-name="Rectangle 59" class="cls-1" x="133.09" y="182.45" width="102.36" height="11.05" rx="5.08"/><rect id="Rectangle_54" data-name="Rectangle 54" class="cls-2" x="324.31" y="12.69" width="102.36" height="11.05" rx="5.08"/><rect id="Rectangle_55" data-name="Rectangle 55" class="cls-3" x="347.24" y="22.11" width="102.36" height="11.05" rx="5.08"/><rect id="Rectangle_56" data-name="Rectangle 56" class="cls-4" x="308.34" y="30.3" width="102.36" height="11.05" rx="5.08"/><rect id="Rectangle_57" data-name="Rectangle 57" class="cls-5" x="149.06" y="161.97" width="102.36" height="11.05" rx="5.08"/><rect id="Rectangle_59-2" data-name="Rectangle 59" class="cls-6" x="133.09" y="182.45" width="102.36" height="11.05" rx="5.08"/><rect id="Rectangle_58" data-name="Rectangle 58" class="cls-7" x="171.99" y="172.93" width="102.36" height="11.05" rx="5.08"/><g id="Group_60" data-name="Group 60" class="cls-8"><path id="Path_393" data-name="Path 393" class="cls-9" d="M434.48,407.17c-2.46,0-59,24.57-124.48-40.13-35.58-35.13-70.42-38.87-94.85-35a73.44,73.44,0,0,0-39.56,20.35c-8.73,8.57-29.86,20.25-79.37,17.06C20.07,364.59,0,419.05,0,419.05H450S436.92,407.17,434.48,407.17Z" transform="translate(0 0)"/></g><path id="Path_394" data-name="Path 394" class="cls-10" d="M0,420.27s20.07-54.46,96.22-49.55c49.51,3.21,70.64-8.49,79.35-17.05a73.09,73.09,0,0,1,39.52-20.35c24.42-3.92,59.28-.18,94.85,34.95C375.47,433,432,408.4,434.43,408.4S450,420.27,450,420.27Z" transform="translate(0 0)"/><path id="Path_395" data-name="Path 395" class="cls-11" d="M0,420.27s20.07-54.46,96.22-49.55c49.51,3.21,70.64-8.49,79.35-17.05a73.09,73.09,0,0,1,39.52-20.35c24.42-3.92,59.28-.18,94.85,34.95C375.47,433,432,408.4,434.43,408.4S450,420.27,450,420.27Z" transform="translate(0 0)"/><rect id="Rectangle_60" data-name="Rectangle 60" class="cls-12" x="46.7" y="73.36" width="102.36" height="11.05" rx="5.08"/><rect id="Rectangle_61" data-name="Rectangle 61" class="cls-13" x="69.63" y="84.32" width="102.36" height="11.05" rx="5.08"/><rect id="Rectangle_62" data-name="Rectangle 62" class="cls-14" x="30.73" y="93.85" width="102.36" height="11.05" rx="5.08"/><g id="Group_61" data-name="Group 61" class="cls-8"><circle id="Ellipse_139" data-name="Ellipse 139" class="cls-15" cx="101.57" cy="41.36" r="41.36"/></g><circle id="Ellipse_140" data-name="Ellipse 140" class="cls-11" cx="101.57" cy="41.36" r="36.85"/><rect id="Rectangle_63" data-name="Rectangle 63" class="cls-16" x="82.06" y="358.49" width="32.06" height="23.81"/><path id="Path_396" data-name="Path 396" class="cls-11" d="M79.27,347.37l17.91-17.91a1.4,1.4,0,0,1,2,0h0l17.77,17.77a1.4,1.4,0,0,1-1,2.39l-35.68.14a1.4,1.4,0,0,1-1.41-1.38A1.37,1.37,0,0,1,79.27,347.37Z" transform="translate(0 0)"/><path id="Path_397" data-name="Path 397" class="cls-17" d="M79.27,347.37l17.91-17.91a1.4,1.4,0,0,1,2,0h0l17.77,17.77a1.4,1.4,0,0,1-1,2.39l-35.68.14a1.4,1.4,0,0,1-1.41-1.38A1.37,1.37,0,0,1,79.27,347.37Z" transform="translate(0 0)"/><path id="Path_398" data-name="Path 398" class="cls-18" d="M97.68,371.56h.64a3.62,3.62,0,0,1,3.62,3.62v7.13H94.06v-7.13A3.62,3.62,0,0,1,97.68,371.56Z" transform="translate(0 0)"/><circle id="Ellipse_141" data-name="Ellipse 141" class="cls-18" cx="98.17" cy="332.08" r="1.97"/><rect id="Rectangle_64" data-name="Rectangle 64" class="cls-18" x="84.57" y="361.53" width="7.52" height="5.73"/><rect id="Rectangle_65" data-name="Rectangle 65" class="cls-11" x="87.97" y="361.53" width="0.72" height="5.73"/><rect id="Rectangle_66" data-name="Rectangle 66" class="cls-18" x="104.62" y="361.53" width="7.52" height="5.73"/><rect id="Rectangle_67" data-name="Rectangle 67" class="cls-11" x="108.02" y="361.53" width="0.72" height="5.73"/><g id="Group_62" data-name="Group 62" class="cls-19"><path id="Path_399" data-name="Path 399" class="cls-20" d="M230.63,319.49" transform="translate(0 0)"/></g><g id="Group_63" data-name="Group 63" class="cls-19"><path id="Path_400" data-name="Path 400" class="cls-21" d="M231.37,336.13h.06a.07.07,0,0,0,0-.06.06.06,0,0,0,0-.06V336c-.05-.12-.17-.29-.23-.43l0-.07a.21.21,0,0,1,0-.11v0l1.1-3.62h0l0-.08a3.41,3.41,0,0,1,1.77,1.8,2.81,2.81,0,0,1,0,1.81h0l0,.06h0v.66h1.53c.1-.05,0-.18-.18-.31l0,0-.09-.09h0a.61.61,0,0,1-.07-.1l0-.06v0h0v-.05a5.2,5.2,0,0,0-1.56-4.93h0a5.32,5.32,0,0,0,0-3.39c.15-.1,2.92-2.11,2.9-4.7a2.94,2.94,0,0,0,0-.42s.24-.2,0-.56v0h-.19a.67.67,0,0,0-.31.1s-.16.51,0,.64h0s-1.65,3.57-2.75,4.08l-.08-.05v-.46a.06.06,0,0,0,0-.06h0a.06.06,0,0,0,0-.06,1.2,1.2,0,0,0,.34-.25h0l.1-.12h0l0-.06h0l0-.07h0l0-.07h0l.06-.15h0v-.06h0v-.08h0v-.06h0v-.08a1.31,1.31,0,0,0-.08-.43.16.16,0,0,0-.05-.11l0-.05,0-.07a.39.39,0,0,1,.1-.08.48.48,0,0,1,.23-.07h.24l.08-.05a.33.33,0,0,1,.13-.07h-.63l-.09,0a.35.35,0,0,0,.14,0h.2l0,0h0v0h-.51l-.07,0h0a.34.34,0,0,0,.23-.63l.06,0a.26.26,0,0,0,.1-.19.17.17,0,0,0,0-.1l0,0h0a.52.52,0,0,1-.34.09h0a1.82,1.82,0,0,1-.3-.11l-.08,0h-.47a1.52,1.52,0,0,0-1,.43,1.63,1.63,0,0,0-.17.2,1.92,1.92,0,0,1,.2-1.08h-.12l-.05.08a.85.85,0,0,1,.14-.34h0a.41.41,0,0,0,0-.55c-.24-.37-.69-.09-.69-.09s-.05.24-.07.37l-.07,0c-.08.28-1,3.44.51,5.46v3.53l-1,4.67h0l-.2.88,1.44.23Zm.25-11a1.24,1.24,0,0,0,.27.17.14.14,0,0,0,0,.09v.45l-.09,0c-.07-.22-.12-.47-.19-.75Z" transform="translate(0 0)"/></g><path id="Path_401" data-name="Path 401" class="cls-22" d="M236.57,320.47s.26-.22,0-.62-.76-.09-.76-.09-.17.58,0,.71S236.57,320.47,236.57,320.47Z" transform="translate(0 0)"/><path id="_Path_" data-name=" Path " class="cls-23" d="M233.83,349h1.22a.38.38,0,0,0,.12.32c.16.19.51.42.34.51h-1.68Z" transform="translate(0 0)"/><path id="Path_402" data-name="Path 402" class="cls-24" d="M235.08,349.32A.38.38,0,0,1,235,349H235a.45.45,0,0,0,.12.32c.16.19.51.42.34.51h-.08C235.57,349.74,235.24,349.51,235.08,349.32Z" transform="translate(0 0)"/><path id="_Path_2" data-name=" Path 2" class="cls-23" d="M229.46,348.75l1.17.21a.51.51,0,0,0,.05.4c.12.26.4.6.24.67l-1.66-.27Z" transform="translate(0 0)"/><path id="Path_403" data-name="Path 403" class="cls-23" d="M230,320.66s-1.3,4.13.89,6.42l.64-.51s-1.3-4.51-.57-5.57C229.69,320.6,230,320.66,230,320.66Z" transform="translate(0 0)"/><path id="Path_404" data-name="Path 404" class="cls-22" d="M230.93,320.26s.27-.22,0-.62-.75-.08-.75-.08-.18.57,0,.7S230.93,320.26,230.93,320.26Z" transform="translate(0 0)"/><path id="Path_405" data-name="Path 405" class="cls-24" d="M230.58,349.34a.56.56,0,0,1-.06-.4l-1.06-.18h0l1.17.2a.51.51,0,0,0,.05.4c.12.26.4.6.24.67h-.07C231,349.91,230.7,349.59,230.58,349.34Z" transform="translate(0 0)"/><rect id="Rectangle_68" data-name="Rectangle 68" class="cls-22" x="231.4" y="324.55" width="1.24" height="1.84" rx="0.57"/><path id="Path_406" data-name="Path 406" class="cls-24" d="M231.46,326.9s-1.29-4.46-.59-5.55H231c-.73,1.06.57,5.57.57,5.57l-.63.51-.06-.06Z" transform="translate(0 0)"/><circle id="Ellipse_142" data-name="Ellipse 142" class="cls-22" cx="232" cy="323.6" r="1.38"/><path id="Path_407" data-name="Path 407" class="cls-24" d="M232.49,325.7V325a1.38,1.38,0,0,0-.55-2.6H232a1.38,1.38,0,0,1,.63,2.6.29.29,0,0,1,0,.13v.6a.62.62,0,0,1-.62.62H232A.63.63,0,0,0,232.49,325.7Z" transform="translate(0 0)"/><path id="Path_408" data-name="Path 408" class="cls-23" d="M230.6,331.27s2.66.3,2.75,0a5.83,5.83,0,0,0,0-3.78,1.37,1.37,0,0,0-1.37-1.37h0a1.37,1.37,0,0,0-1.38,1.37h0Z" transform="translate(0 0)"/><path id="Path_409" data-name="Path 409" class="cls-25" d="M230.6,332.13l-1.2,5.5h1.2l1.24-4.07a3.83,3.83,0,0,1,2,2,3,3,0,0,1,0,2.09h1.29v-.06a5.74,5.74,0,0,0-1.75-5.45h0" transform="translate(0 0)"/><path id="Path_410" data-name="Path 410" class="cls-24" d="M233.17,331.27a5.8,5.8,0,0,0,0-3.77,1.38,1.38,0,0,0-1.29-1.38H232a1.38,1.38,0,0,1,1.38,1.38h0a6,6,0,0,1,0,3.78c0,.1-.4.13-.85.13C232.89,331.4,233.17,331.36,233.17,331.27Z" transform="translate(0 0)"/><path id="Path_411" data-name="Path 411" class="cls-23" d="M233.37,326.83s3.57-2.49,3.2-5.64h-.8s-1.91,4.13-3.13,4.53S233.37,326.83,233.37,326.83Z" transform="translate(0 0)"/><g id="Group_64" data-name="Group 64" class="cls-19"><path id="Path_412" data-name="Path 412" class="cls-26" d="M231.82,333.65l-1.22,4h-.18l1.25-4.08Z" transform="translate(0 0)"/><path id="Path_413" data-name="Path 413" class="cls-26" d="M233.17,332.15h.18a5.74,5.74,0,0,1,1.75,5.45v.06h-.18v-.06A5.72,5.72,0,0,0,233.17,332.15Z" transform="translate(0 0)"/></g><path id="Path_414" data-name="Path 414" class="cls-24" d="M236.44,321.23h.13c.36,3.15-3.2,5.64-3.2,5.64l-.08,0C233.68,326.54,236.77,324.18,236.44,321.23Z" transform="translate(0 0)"/><path id="Path_415" data-name="Path 415" class="cls-25" d="M233.09,322.93a2.49,2.49,0,0,0-.16.55,1.44,1.44,0,0,1-.63,1,1.47,1.47,0,0,1-.61.17,1.2,1.2,0,0,1-.92-.28,1.15,1.15,0,0,1-.28-.56A1.92,1.92,0,0,1,231,322a1.68,1.68,0,0,1,1.76-.37,2,2,0,0,0,.34.12.57.57,0,0,0,.51-.16.3.3,0,0,1-.2.38h-.1a.84.84,0,0,0,.66,0,.55.55,0,0,1-.7.28,1.8,1.8,0,0,0,.79.16c-.05,0-.17.11-.24.13h-.26A.51.51,0,0,0,233.09,322.93Z" transform="translate(0 0)"/><g id="Group_65" data-name="Group 65" class="cls-19"><path id="Path_416" data-name="Path 416" class="cls-26" d="M233.28,322a.89.89,0,0,0,.32.08.94.94,0,0,1-.43-.08.31.31,0,0,0,.32-.31v0l.07-.06a.3.3,0,0,1-.2.38l-.08,0Z" transform="translate(0 0)"/><path id="Path_417" data-name="Path 417" class="cls-26" d="M233,321.78a2,2,0,0,1-.34-.12,1.45,1.45,0,0,0-.5-.11,1.41,1.41,0,0,1,.61.11,2,2,0,0,0,.34.12h0A.38.38,0,0,1,233,321.78Z" transform="translate(0 0)"/><path id="Path_418" data-name="Path 418" class="cls-26" d="M233.68,322.62c.08,0,.19-.13.24-.13a1.8,1.8,0,0,1-.79-.16.57.57,0,0,0,.18,0,1.87,1.87,0,0,0,.71.13c-.06,0-.17.1-.24.12h-.1Z" transform="translate(0 0)"/><path id="Path_419" data-name="Path 419" class="cls-26" d="M231.59,324.62a1.47,1.47,0,0,0,.62-.17,1.49,1.49,0,0,0,.63-1,2.75,2.75,0,0,1,.16-.56.52.52,0,0,1,.43-.28h.09a.52.52,0,0,0-.43.28,2.23,2.23,0,0,0-.16.56,1.49,1.49,0,0,1-.63,1,1.47,1.47,0,0,1-.62.17Z" transform="translate(0 0)"/><path id="Path_420" data-name="Path 420" class="cls-26" d="M233.38,322.37a.56.56,0,0,0,.46-.29l.1,0A.57.57,0,0,1,233.38,322.37Z" transform="translate(0 0)"/></g><path id="Path_421" data-name="Path 421" class="cls-24" d="M236.48,320.47s.27-.22,0-.62a.41.41,0,0,0-.33-.2.44.44,0,0,1,.42.2c.26.4,0,.62,0,.62a2.22,2.22,0,0,1-.51.06Z" transform="translate(0 0)"/><path id="Path_422" data-name="Path 422" class="cls-27" d="M242.56,315.54s-1.31,4.13.88,6.42l.64-.51s-1.3-4.51-.57-5.57C242.23,315.48,242.56,315.54,242.56,315.54Z" transform="translate(0 0)"/><path id="Path_423" data-name="Path 423" class="cls-28" d="M243.46,315.16s.27-.22,0-.62-.75-.09-.75-.09-.18.58,0,.71S243.46,315.16,243.46,315.16Z" transform="translate(0 0)"/><rect id="Rectangle_69" data-name="Rectangle 69" class="cls-28" x="243.93" y="319.45" width="1.24" height="1.84" rx="0.57"/><path id="Path_424" data-name="Path 424" class="cls-24" d="M244,321.8s-1.29-4.45-.59-5.55h.13c-.72,1.06.58,5.57.58,5.57l-.64.51-.06-.06Z" transform="translate(0 0)"/><circle id="Ellipse_143" data-name="Ellipse 143" class="cls-28" cx="244.53" cy="318.49" r="1.38"/><path id="Path_425" data-name="Path 425" class="cls-24" d="M245,320.59v-.73a1.38,1.38,0,0,0-.55-2.6h.07a1.37,1.37,0,0,1,1.38,1.37,1.4,1.4,0,0,1-.74,1.23v.73a.62.62,0,0,1-.63.62h-.07A.63.63,0,0,0,245,320.59Z" transform="translate(0 0)"/><path id="Path_426" data-name="Path 426" class="cls-27" d="M243.13,326.15s2.66.3,2.75,0c.32-1-.51-2-.1-2.54a1.27,1.27,0,0,0,.1-1.25,1.37,1.37,0,0,0-1.37-1.37h0a1.37,1.37,0,0,0-1.38,1.37h0Z" transform="translate(0 0)"/><path id="Path_427" data-name="Path 427" class="cls-24" d="M245.78,323.63a1.25,1.25,0,0,0,.11-1.25,1.37,1.37,0,0,0-1.38-1.37h-.08a1.38,1.38,0,0,1,1.29,1.37,1.28,1.28,0,0,1-.11,1.24c-.43.51.42,1.56.11,2.55,0,.09-.31.13-.67.13.45,0,.81,0,.84-.13C246.21,325.19,245.35,324.14,245.78,323.63Z" transform="translate(0 0)"/><path id="Path_428" data-name="Path 428" class="cls-28" d="M245.32,326.91h0a7.91,7.91,0,0,1,1.12,5.45v.06h-.83a4.35,4.35,0,0,0,0-2.09,3.27,3.27,0,0,0-1.25-2l-.8,4.07h-.77l.77-5.5Z" transform="translate(0 0)"/><path id="Path_429" data-name="Path 429" class="cls-28" d="M250,317s.32-.13.19-.6-.7-.3-.7-.3-.34.51-.21.68S250,317,250,317Z" transform="translate(0 0)"/><path id="Path_430" data-name="Path 430" class="cls-27" d="M245.28,322s4.12-1.33,4.71-4.45l-.77-.24s-3.06,3.39-4.32,3.42S245.28,322,245.28,322Z" transform="translate(0 0)"/><path id="Path_431" data-name="Path 431" class="cls-24" d="M249.84,317.6l.13,0c-.58,3.12-4.71,4.45-4.71,4.45l-.07,0C245.68,321.86,249.3,320.51,249.84,317.6Z" transform="translate(0 0)"/><g id="Group_66" data-name="Group 66" class="cls-19"><path id="Path_432" data-name="Path 432" class="cls-26" d="M244.17,328.33l-.8,4.08h.18l.77-4A1,1,0,0,0,244.17,328.33Z" transform="translate(0 0)"/><path id="Path_433" data-name="Path 433" class="cls-26" d="M245.32,326.91h-.18a7.91,7.91,0,0,1,1.12,5.45v.06h.16v-.06A7.85,7.85,0,0,0,245.32,326.91Z" transform="translate(0 0)"/></g><path id="Path_434" data-name="Path 434" class="cls-24" d="M249.9,317s.32-.13.18-.59a.39.39,0,0,0-.25-.29.43.43,0,0,1,.34.31c.14.46-.18.6-.18.6a2.71,2.71,0,0,1-.51-.1A2,2,0,0,0,249.9,317Z" transform="translate(0 0)"/><path id="Path_435" data-name="Path 435" class="cls-25" d="M243.13,326.64l-1.67,3.53a21.81,21.81,0,0,1,2.91.35,3.11,3.11,0,0,0,2.73-.51l-1.19-3.37Z" transform="translate(0 0)"/><path id="Path_436" data-name="Path 436" class="cls-27" d="M243.58,332.64s.88.18.7.51h-1.59l.09-.51Z" transform="translate(0 0)"/><path id="Path_437" data-name="Path 437" class="cls-27" d="M246.39,332.64s.89.18.71.51h-1.59l.09-.51Z" transform="translate(0 0)"/><path id="Path_438" data-name="Path 438" class="cls-29" d="M245.78,317.55s-2.12,3-1.15,4.23l-3.79-.08S241.9,314.91,245.78,317.55Z" transform="translate(0 0)"/><path id="Path_439" data-name="Path 439" class="cls-24" d="M245.78,317.55a3.37,3.37,0,0,0-1.48-.6,3.9,3.9,0,0,1,1,.51s-2.12,3-1.15,4.23l-3.33-.07v.07l3.79.09C243.66,320.55,245.78,317.55,245.78,317.55Z" transform="translate(0 0)"/><path id="Path_440" data-name="Path 440" class="cls-24" d="M245.91,326.65h-.26l1.19,3.34a2.6,2.6,0,0,1-1.75.61,2.75,2.75,0,0,0,2-.61Z" transform="translate(0 0)"/><path id="Path_441" data-name="Path 441" class="cls-24" d="M243.58,332.64h-.18s.88.18.7.51h.18C244.46,332.82,243.58,332.64,243.58,332.64Z" transform="translate(0 0)"/><path id="Path_442" data-name="Path 442" class="cls-24" d="M246.39,332.64h-.17s.88.18.7.51h.18C247.28,332.82,246.39,332.64,246.39,332.64Z" transform="translate(0 0)"/><path id="Path_443" data-name="Path 443" class="cls-30" d="M369.76,234.41,364.85,207l15.56-.76v28.19h10.65l10.64-30.3" transform="translate(0 0)"/><rect id="Rectangle_70" data-name="Rectangle 70" class="cls-11" x="359.12" y="236.29" width="42.58" height="30.3" rx="13.91"/><path id="Path_444" data-name="Path 444" class="cls-17" d="M387,234.87H374.68A15.19,15.19,0,0,0,359.53,250h0a8.7,8.7,0,0,0,0,1,15.2,15.2,0,0,1,15.11-14.13H387A15.2,15.2,0,0,1,402.07,251c0-.34,0-.68,0-1h0A15.18,15.18,0,0,0,387,234.87Z" transform="translate(0 0)"/><path id="Path_445" data-name="Path 445" class="cls-31" d="M390.22,245.23l-4-3.16-9.72,12.32-5.23-4L368,254.5l7.61,5.81h0l1.88,1.51Z" transform="translate(0 0)"/><path id="Path_446" data-name="Path 446" class="cls-18" d="M389.92,245.12l-3.64-2.79-9.66,12.6-5.37-4.12-2.8,3.65,7.19,5.5h0l1.85,1.38Z" transform="translate(0 0)"/><path id="Path_447" data-name="Path 447" class="cls-32" d="M445,133.11c0,35-29.23,63.36-60.36,63.36s-63-28.37-63-63.36,31.9-63.36,63-63.36S445,98.12,445,133.11Z" transform="translate(0 0)"/><path id="Path_448" data-name="Path 448" class="cls-11" d="M442.12,133.48c0,33.36-27.86,60.39-57.53,60.39s-60.08-27-60.08-60.39,30.42-60.37,60.08-60.37S442.12,100.12,442.12,133.48Z" transform="translate(0 0)"/><rect id="Rectangle_71" data-name="Rectangle 71" class="cls-11" x="375.37" y="211.17" width="13.35" height="4.66"/><g id="Group_67" data-name="Group 67" class="cls-19"><path id="Path_449" data-name="Path 449" d="M384.59,72.83c-.7,0-1.41,0-2.12,0,28.86,1.25,55.41,27.78,55.41,60.34s-26.55,59.09-55.39,60.34c.71,0,1.42.05,2.12.05,29.67,0,57.54-27,57.54-60.39S414.26,72.83,384.59,72.83Z" transform="translate(0 0)"/></g><g id="Group_68" data-name="Group 68" class="cls-19"><path id="Path_450" data-name="Path 450" class="cls-26" d="M327.91,133.49c0-32.88,29.56-59.63,58.8-60.37h-1.27c-29.66,0-60.07,27-60.07,60.39s30.4,60.39,60.07,60.39h1.27C357.46,193.1,327.91,166.38,327.91,133.49Z" transform="translate(0 0)"/></g><rect id="Rectangle_72" data-name="Rectangle 72" class="cls-11" x="363.51" y="199.49" width="38.35" height="12.5"/><path id="Path_451" data-name="Path 451" class="cls-24" d="M363.51,77.35s-45.55,52.08,0,112l15-.05S337,139.79,376.65,73.6l-7.41,1.69Z" transform="translate(0 0)"/><path id="Path_452" data-name="Path 452" class="cls-24" d="M403.13,76.46s45.56,52.87,0,112.78l-15-.05S429.62,139.25,390,73.07l7.41,1.49Z" transform="translate(0 0)"/><rect id="Rectangle_59-3" data-name="Rectangle 59" class="cls-1" x="172.09" y="172.93" width="102.36" height="11.05" rx="5.08"/><rect id="Rectangle_59-4" data-name="Rectangle 59" class="cls-1" x="30.73" y="93.85" width="102.36" height="11.05" rx="5.08"/><rect id="Rectangle_59-5" data-name="Rectangle 59" class="cls-1" x="69.63" y="84.32" width="102.36" height="11.05" rx="5.08"/><rect id="Rectangle_59-6" data-name="Rectangle 59" class="cls-1" x="46.7" y="73.36" width="102.36" height="11.05" rx="5.08"/><rect id="Rectangle_59-7" data-name="Rectangle 59" class="cls-1" x="308.34" y="30.3" width="102.36" height="11.05" rx="5.08"/><rect id="Rectangle_59-8" data-name="Rectangle 59" class="cls-1" x="149.06" y="161.97" width="102.36" height="11.05" rx="5.08"/><rect id="Rectangle_59-9" data-name="Rectangle 59" class="cls-1" x="324.31" y="12.69" width="102.36" height="11.05" rx="5.08"/><rect id="Rectangle_59-10" data-name="Rectangle 59" class="cls-1" x="347.24" y="22.11" width="102.36" height="11.05" rx="5.08"/></svg>