<svg id="undraw_Forms_re_pkrt" data-name="undraw Forms re pkrt" xmlns="http://www.w3.org/2000/svg" viewBox="0 0 500 409.77"><defs><style>.cls-1,.cls-2,.cls-6{fill:#fff;}.cls-1{opacity:0.08;}.cls-2,.cls-3{stroke:#4c61d5;stroke-miterlimit:10;}.cls-2{opacity:0.14;}.cls-3,.cls-5{fill:#e6e6e6;}.cls-3{stroke-width:0.25px;}.cls-4{fill:#4c61d5;}.cls-7{fill:#ffb8b8;}.cls-8{fill:#2f2e41;}.cls-9{fill:#ccc;}</style></defs><title>2</title><path id="Path_296" data-name="Path 296" class="cls-1" d="M372,321.16H217a9.34,9.34,0,0,1-9.34-9.33V200.36A9.34,9.34,0,0,1,217,191H372a9.33,9.33,0,0,1,9.33,9.33V311.83A9.33,9.33,0,0,1,372,321.16Z" transform="translate(0 0)"/><path id="Path_297" data-name="Path 297" class="cls-2" d="M219.87,313.72h149.3a4.53,4.53,0,0,0,4.53-4.53V203a4.53,4.53,0,0,0-4.53-4.53H219.87a4.52,4.52,0,0,0-4.52,4.53V309.19A4.52,4.52,0,0,0,219.87,313.72Z" transform="translate(0 0)"/><path id="Path_298" data-name="Path 298" class="cls-1" d="M164.37,171.52H9.34A9.35,9.35,0,0,1,0,162.19V50.72a9.34,9.34,0,0,1,9.34-9.33h155a9.33,9.33,0,0,1,9.33,9.33V162.19A9.34,9.34,0,0,1,164.37,171.52Z" transform="translate(0 0)"/><path id="Path_299" data-name="Path 299" class="cls-2" d="M12.2,164.08H161.5a4.53,4.53,0,0,0,4.53-4.53V53.36a4.53,4.53,0,0,0-4.53-4.53H12.2a4.52,4.52,0,0,0-4.52,4.53V159.55A4.52,4.52,0,0,0,12.2,164.08Z" transform="translate(0 0)"/><path id="Path_300" data-name="Path 300" class="cls-3" d="M351.38,231.47H256a3.41,3.41,0,1,0-.09,6.81h95.46a3.41,3.41,0,0,0,.08-6.81Z" transform="translate(0 0)"/><path id="Path_301" data-name="Path 301" class="cls-3" d="M256,252.43a3.41,3.41,0,0,0,0,6.81h95.37a3.41,3.41,0,0,0,.08-6.81H256Z" transform="translate(0 0)"/><path id="Path_302" data-name="Path 302" class="cls-3" d="M256,273.39a3.41,3.41,0,0,0,0,6.81h95.37a3.41,3.41,0,0,0,.08-6.81H256Z" transform="translate(0 0)"/><circle id="Ellipse_124" data-name="Ellipse 124" class="cls-4" cx="237.93" cy="235.13" r="4.19"/><circle id="Ellipse_125" data-name="Ellipse 125" class="cls-5" cx="237.93" cy="256.09" r="4.19"/><circle id="Ellipse_126" data-name="Ellipse 126" class="cls-5" cx="237.93" cy="277.05" r="4.19"/><path id="Path_303" data-name="Path 303" class="cls-4" d="M313.39,234.87h0a3.41,3.41,0,0,1-3.41,3.41H256.13a3.5,3.5,0,0,1-3.5-2.95,3.41,3.41,0,0,1,2.94-3.83,3.15,3.15,0,0,1,.44,0h54a3.41,3.41,0,0,1,3.41,3.4Z" transform="translate(0 0)"/><circle id="Ellipse_127" data-name="Ellipse 127" class="cls-5" cx="294.52" cy="163.08" r="13.62"/><circle id="Ellipse_128" data-name="Ellipse 128" class="cls-6" cx="294.52" cy="163.08" r="6.81"/><path id="Path_304" data-name="Path 304" class="cls-3" d="M23.24,103.22a3.38,3.38,0,0,0-.09,6.75H150.46a3.38,3.38,0,1,0,.09-6.75H23.24Z" transform="translate(0 0)"/><path id="Path_305" data-name="Path 305" class="cls-3" d="M23.24,124a3.38,3.38,0,0,0-.09,6.75H150.46a3.38,3.38,0,1,0,.09-6.75H23.24Z" transform="translate(0 0)"/><path id="Path_306" data-name="Path 306" class="cls-4" d="M80.1,145.8a3.38,3.38,0,0,0,0,6.75H93.6a3.38,3.38,0,0,0,0-6.75Z" transform="translate(0 0)"/><path id="Path_307" data-name="Path 307" class="cls-4" d="M68.76,60.36a1,1,0,0,0-1,1V87.76a1,1,0,0,0,1,1h36.18a1,1,0,0,0,1-1V61.4a1,1,0,0,0-1-1Z" transform="translate(0 0)"/><circle id="Ellipse_129" data-name="Ellipse 129" class="cls-6" cx="86.85" cy="71.66" r="5.71"/><path id="Path_308" data-name="Path 308" class="cls-6" d="M96.2,86.2a5.58,5.58,0,0,1-.63,2.6H78.13a5.71,5.71,0,0,1,2.48-7.68,5.65,5.65,0,0,1,2.61-.63h7.27a5.71,5.71,0,0,1,5.71,5.7Z" transform="translate(0 0)"/><circle id="Ellipse_130" data-name="Ellipse 130" class="cls-3" cx="86.85" cy="71.66" r="5.71"/><path id="Path_309" data-name="Path 309" class="cls-3" d="M96.2,86.2a5.58,5.58,0,0,1-.63,2.6H78.13a5.71,5.71,0,0,1,2.48-7.68,5.65,5.65,0,0,1,2.61-.63h7.27a5.71,5.71,0,0,1,5.71,5.7Z" transform="translate(0 0)"/><circle id="Ellipse_131" data-name="Ellipse 131" class="cls-5" cx="86.85" cy="13.5" r="13.5"/><circle id="Ellipse_132" data-name="Ellipse 132" class="cls-4" cx="86.85" cy="13.5" r="6.75"/><path id="Path_310" data-name="Path 310" class="cls-7" d="M423.29,402.42h-6.47l-3.08-24.95h9.55Z" transform="translate(0 0)"/><path id="Path_311" data-name="Path 311" class="cls-8" d="M412.2,400.57h12.47v7.86H404.34a7.86,7.86,0,0,1,7.86-7.86Z" transform="translate(0 0)"/><path id="Path_312" data-name="Path 312" class="cls-7" d="M458.15,402.42h-6.47l-3.07-24.95h9.54Z" transform="translate(0 0)"/><path id="Path_313" data-name="Path 313" class="cls-8" d="M447.06,400.57h12.48v7.86H439.21a7.85,7.85,0,0,1,7.85-7.86Z" transform="translate(0 0)"/><circle id="Ellipse_133" data-name="Ellipse 133" class="cls-7" cx="439.21" cy="211.16" r="13.9"/><path id="Path_314" data-name="Path 314" class="cls-7" d="M391.69,301.79a5.3,5.3,0,0,1,5.93-4.6,5.69,5.69,0,0,1,.91.2l7.77-9.31,6.81,3.34-11.15,13a5.34,5.34,0,0,1-10.27-2.62Z" transform="translate(0 0)"/><path id="Path_315" data-name="Path 315" class="cls-7" d="M458.53,311.21a5.31,5.31,0,0,1,3.41-7.39l1.56-12L471,291l-2.44,17a5.33,5.33,0,0,1-10.07,3.3Z" transform="translate(0 0)"/><path id="Path_316" data-name="Path 316" class="cls-4" d="M450.82,237.41h0a6.83,6.83,0,0,1,11.74,1.66L474,267.49a17.6,17.6,0,0,1,1.08,9.16l-3.71,25a2.26,2.26,0,0,1-2.57,1.9,1.86,1.86,0,0,1-.34-.07l-4.88-1.5a2.28,2.28,0,0,1-1.59-2.43h0a82.1,82.1,0,0,0-6.6-43.13l-5.37-12A6.84,6.84,0,0,1,450.82,237.41Z" transform="translate(0 0)"/><path id="Path_317" data-name="Path 317" class="cls-8" d="M442.59,225.06a14.83,14.83,0,1,0,.64-29.65,15.13,15.13,0,0,0-3.42.32A17,17,0,0,0,429.64,193c-3.56.32-7.08,2.43-8.41,5.75s.1,7.69,3.41,9c2.12.86,4.52.44,6.78.09s4.74-.57,6.71.6,2.86,4.3,1.09,5.76a6.08,6.08,0,0,0-1.74,6.69C438.37,223.17,440.79,225,442.59,225.06Z" transform="translate(0 0)"/><path id="Path_318" data-name="Path 318" class="cls-8" d="M459.83,301.24l2.47,93.55a2.27,2.27,0,0,1-2.2,2.32h-.18l-8.12-.41a2.27,2.27,0,0,1-2.12-1.91L440,334a1.13,1.13,0,0,0-2.22-.07l-13.08,58.5a2.26,2.26,0,0,1-2.7,1.72,1.12,1.12,0,0,1-.26-.08l-8.06-.49a2.26,2.26,0,0,1-1.5-2.29l7-91Z" transform="translate(0 0)"/><path id="Path_319" data-name="Path 319" class="cls-4" d="M463.79,256.81c1.36-14.18-9.06-27-23.27-28-6.12-.43-15.62-.59-18.76,7.43-9.43,24.17,7.09,23.58,1.4,44.52s-10.72,22.14-2.91,23.65,42.92,10.44,41.48-4.3C460.85,291,462.43,271,463.79,256.81Z" transform="translate(0 0)"/><path id="Path_320" data-name="Path 320" class="cls-4" d="M423.44,233.77h0a6.84,6.84,0,0,1,8.84,3.91,6.73,6.73,0,0,1,.37,3.55L428.22,269a27,27,0,0,1-5.81,12.9L408,299.41a2.28,2.28,0,0,1-3.19.31,2.73,2.73,0,0,1-.25-.23l-3.42-3.8a2.27,2.27,0,0,1-.11-2.9l1-1.31A76.23,76.23,0,0,0,417.35,254l1.76-14.7a6.87,6.87,0,0,1,4.32-5.57Z" transform="translate(0 0)"/><path id="Path_321" data-name="Path 321" class="cls-9" d="M499.43,409.77h-146a.57.57,0,1,1,0-1.13h146a.57.57,0,1,1,0,1.13Z" transform="translate(0 0)"/></svg>